# xmcd
#
# Track frame offsets: 
#        150
#        9275
#        20902
#        33213
#        45970
#        59693
#        69668
#        79050
#        92628
#        109465
#        125103
#        138073
#
# Disc length: 1987 seconds
#
# Revision: 3
# Processed by: cddbd v1.5.2PL0 Copyright (c) Steve Scherf et al.
# Submitted via: ExactAudioCopyFreeDBPlugin 1.0
#
DISCID=9e07c10c
DTITLE=Patsy Cline - 12 Greatest Hits
DYEAR=1988
DGENRE=Country
TTITLE0=Walkin' after Midnight
TTITLE1=Sweet Dreams (Of You)
TTITLE2=Crazy
TTITLE3=I Fall to Pieces
TTITLE4=So Wrong
TTITLE5=Strange
TTITLE6=Back in Baby's Arms
TTITLE7=She's Got You
TTITLE8=Faded Love
TTITLE9=Why Can't He Be You
TTITLE10=You're Stronger Than Me
TTITLE11=Leavin' on Your Mind
EXTD=Produced by Owen Bradley.\nRemastered and transferred to digital 
EXTD=by: Glenn Meadows,\nMilan Bogdan, Jim Loyd and Benny Quinn.\n\nMC
EXTD=A Records MCAD-12.  1988. YEAR: 1988
EXTT0=
EXTT1=
EXTT2=
EXTT3=
EXTT4=
EXTT5=
EXTT6=
EXTT7=
EXTT8=
EXTT9=
EXTT10=
EXTT11=
PLAYORDER=
